<svg xmlns="http://www.w3.org/2000/svg" xmlns:svgjs="http://svgjs.com/svgjs" xmlns:xlink="http://www.w3.org/1999/xlink" width="288" height="288"><svg xmlns="http://www.w3.org/2000/svg" width="288" height="288" enable-background="new 0 0 520 520" viewBox="0 0 520 520"><path fill="#2c2d30" d="M322.514,316.354c-0.002,0.001-0.004,0.003-0.007,0.004l-70.62,28.248c-0.001,0-0.003,0.001-0.004,0.001l-0.086,0.035
			c-0.141,0.056-0.286,0.083-0.429,0.125c-0.153,0.047-0.301,0.104-0.46,0.135c-0.321,0.063-0.644,0.098-0.967,0.098h0h0H175
			c-2.761,0-5-2.238-5-5s2.239-5,5-5h71.554l27.027-67.568c0.001-0.003,0.003-0.005,0.004-0.008c0.244-0.607,0.61-1.178,1.104-1.67
			L380,160.442V65H120v340h260V259.436l-55.815,55.815C323.692,315.744,323.122,316.11,322.514,316.354z M265,240
			c-5.522,0-10-4.477-10-10s4.478-10,10-10s10,4.477,10,10S270.522,240,265,240z M265,105h80c2.762,0,5,2.239,5,5s-2.238,5-5,5h-80
			c-2.762,0-5-2.239-5-5S262.238,105,265,105z M235,100c5.523,0,10,4.477,10,10s-4.477,10-10,10c-5.522,0-10-4.477-10-10
			S229.478,100,235,100z M155,105h50c2.761,0,5,2.239,5,5s-2.239,5-5,5h-50c-2.761,0-5-2.239-5-5S152.239,105,155,105z M155,145h190
			c2.762,0,5,2.239,5,5s-2.238,5-5,5H155c-2.761,0-5-2.239-5-5S152.239,145,155,145z M155,185h150c2.762,0,5,2.239,5,5s-2.238,5-5,5
			H155c-2.761,0-5-2.239-5-5S152.239,185,155,185z M155,225h80c2.761,0,5,2.239,5,5s-2.239,5-5,5h-80c-2.761,0-5-2.239-5-5
			S152.239,225,155,225z M150,270c0-2.762,2.239-5,5-5h80c2.761,0,5,2.238,5,5s-2.239,5-5,5h-80C152.239,275,150,272.762,150,270z" class="color000 svgShape"/><path fill="#2c2d30" d="M70,450V145H40v340h260v-30H75C72.239,455,70,452.762,70,450z" class="color000 svgShape"/><path fill="#2c2d30" d="M110 410V105H80v340h260v-30H115C112.239 415 110 412.762 110 410zM50 55c5.514 0 10-4.486 10-10s-4.486-10-10-10-10 4.486-10 10S44.486 55 50 55zM445 405c-8.271 0-15 6.729-15 15s6.729 15 15 15 15-6.729 15-15S453.271 405 445 405z" class="color000 svgShape"/><polygon fill="#2c2d30" points="311.753 309.89 280.05 278.186 258.915 331.024" class="color000 svgShape"/><path fill="#2c2d30" d="M440.857 156.152L331.256 265.754c-.976.977-2.256 1.465-3.535 1.465s-2.56-.488-3.535-1.465c-1.953-1.952-1.953-5.118 0-7.07l109.602-109.603-14.143-14.142-31.106 31.106c-.002.001-.004.003-.005.005L285.294 269.289l35.355 35.356 60.813-60.813c.002-.002.004-.004.006-.006L455 170.294 440.857 156.152zM472.678 117.262c-4.723-4.722-11-7.323-17.678-7.323s-12.955 2.601-17.678 7.322l-10.607 10.607 35.356 35.355 10.606-10.607c4.722-4.722 7.322-11 7.322-17.678S477.399 121.983 472.678 117.262z" class="color000 svgShape"/></svg></svg>